<?xml version="1.0" encoding="iso-8859-1"?>
<!-- Generator: Adobe Illustrator 19.0.0, SVG Export Plug-In . SVG Version: 6.00 Build 0)  -->
<svg version="1.1" id="Capa_1" xmlns="http://www.w3.org/2000/svg" xmlns:xlink="http://www.w3.org/1999/xlink" x="0px" y="0px"
	 viewBox="0 0 512 512" style="enable-background:new 0 0 512 512;" xml:space="preserve">
<g>
	<g>
		<rect x="187.733" y="187.733" width="34.133" height="136.533"/>
	</g>
</g>
<g>
	<g>
		<rect x="290.133" y="187.733" width="34.133" height="136.533"/>
	</g>
</g>
<g>
	<g>
		<path d="M256,0C114.842,0,0,114.842,0,256s114.842,256,256,256s256-114.842,256-256S397.158,0,256,0z M256,51.2
			c24.422,0.009,48.316,4.267,71.023,12.646c4.42,1.63,6.682,6.545,5.052,10.965c-1.271,3.439-4.531,5.572-8.004,5.572
			c-0.981,0-1.98-0.171-2.953-0.529c-20.821-7.68-42.726-11.58-65.118-11.588c-4.71,0-8.533-3.823-8.533-8.533
			C247.467,55.014,251.29,51.2,256,51.2z M134.545,406.545c-1.69,2.014-4.113,3.055-6.545,3.055c-1.937,0-3.874-0.649-5.478-1.988
			C75.844,368.529,51.183,316.1,51.2,256c0-4.719,3.823-8.533,8.533-8.533s8.533,3.823,8.533,8.533
			c-0.017,54.895,22.537,102.793,65.212,138.522C137.088,397.551,137.566,402.935,134.545,406.545z M170.667,332.8V179.2
			c0-4.719,3.823-8.533,8.533-8.533h51.2c4.71,0,8.533,3.814,8.533,8.533v153.6c0,4.719-3.823,8.533-8.533,8.533h-51.2
			C174.49,341.333,170.667,337.519,170.667,332.8z M256,460.8c-22.98,0-45.559-3.78-67.106-11.238
			c-4.454-1.544-6.81-6.409-5.265-10.854c1.536-4.454,6.391-6.827,10.854-5.274c19.746,6.835,40.439,10.3,61.517,10.3
			c4.71,0,8.533,3.814,8.533,8.533C264.533,456.986,260.71,460.8,256,460.8z M341.333,332.8c0,4.719-3.823,8.533-8.533,8.533h-51.2
			c-4.71,0-8.533-3.814-8.533-8.533V179.2c0-4.719,3.823-8.533,8.533-8.533h51.2c4.71,0,8.533,3.814,8.533,8.533V332.8z
			 M452.267,264.533c-4.71,0-8.533-3.823-8.533-8.533c0.017-52.719-23.185-101.948-65.331-138.633
			c-3.558-3.089-3.925-8.482-0.836-12.032s8.482-3.925,12.041-0.836c45.926,39.97,71.211,93.773,71.194,151.501
			C460.8,260.719,456.977,264.533,452.267,264.533z"/>
	</g>
</g>
<g>
</g>
<g>
</g>
<g>
</g>
<g>
</g>
<g>
</g>
<g>
</g>
<g>
</g>
<g>
</g>
<g>
</g>
<g>
</g>
<g>
</g>
<g>
</g>
<g>
</g>
<g>
</g>
<g>
</g>
</svg>
